# Blender v2.79 (sub 0) OBJ File: 'water.blend'
# www.blender.org
mtllib water.mtl
o Cube_Cube.001
v -0.246647 -0.000000 0.565744
v -0.246647 1.000000 0.565744
v -0.246647 -0.000000 -0.434256
v -0.246647 1.000000 -0.434256
v 0.753353 -0.000000 0.565744
v 0.753353 1.000000 0.565744
v 0.753353 -0.000000 -0.434256
v 0.753353 1.000000 -0.434256
vt 0.000000 0.915407
vt 0.637305 0.494302
vt 0.071983 0.386755
vt 0.659512 1.000000
vt 0.915907 0.163156
vt 1.000000 0.741648
vt 0.234005 0.000000
vt 0.176005 0.603850
vn -1.0000 0.0000 0.0000
vn 0.0000 0.0000 -1.0000
vn 1.0000 0.0000 0.0000
vn 0.0000 0.0000 1.0000
vn 0.0000 -1.0000 0.0000
vn 0.0000 1.0000 0.0000
usemtl Material.001
s off
f 2/1/1 3/2/1 1/3/1
f 4/4/2 7/5/2 3/2/2
f 8/6/3 5/7/3 7/5/3
f 6/8/4 1/3/4 5/7/4
f 7/5/5 1/3/5 3/2/5
f 4/4/6 6/8/6 8/6/6
f 2/1/1 4/4/1 3/2/1
f 4/4/2 8/6/2 7/5/2
f 8/6/3 6/8/3 5/7/3
f 6/8/4 2/1/4 1/3/4
f 7/5/5 5/7/5 1/3/5
f 4/4/6 2/1/6 6/8/6
